<svg fill="none" height="150" viewBox="0 0 150 150" width="150" xmlns="http://www.w3.org/2000/svg" xmlns:xlink="http://www.w3.org/1999/xlink"><clipPath id="a"><path d="m0 0h150v150h-150z"/></clipPath><g clip-path="url(#a)"><path d="m75.0011.572876c-41.039 0-74.426149 33.387624-74.426149 74.426024 0 41.0381 33.387149 74.4261 74.426149 74.4261 41.0379 0 74.4269-33.388 74.4269-74.4261 0-41.0384-33.389-74.426024-74.4269-74.426024z" fill="#fff"/><path clip-rule="evenodd" d="m.574951 74.9989c0-41.0384 33.387149-74.426024 74.426149-74.426024 41.0379 0 74.4269 33.387624 74.4269 74.426024 0 41.0381-33.389 74.4261-74.4269 74.4261-41.039 0-74.426149-33.388-74.426149-74.4261z" fill="#fff" fill-rule="evenodd"/><g fill="#54616a"><path d="m10.6681 77.1763-.0794-2.8297 7.8005-.2194.148 5.2744-2.222.0624-.0686-2.4437z"/><path d="m18.4833 79.6461.455 2.9484-2.0115 1.2344c-.2001.1331-.4132.2372-.6386.3113l.0127.0814c.2604-.0006.5087.0233.7454.0746l2.2257.4612.4463 2.8904-8.2605-2.359-.4498-2.9143 2.499.7742z"/><path d="m18.6062 91.317-1.2899.3827.1364.4601c.0794.2696.2069.4512.3812.5459.1402.0885.311.1024.5133.0428.2017-.0596.3351-.1726.4-.3381.0722-.1676.0739-.3676.0052-.5999zm-5.4293 1.6098-.7846-2.647 7.482-2.2186 1.064 3.59c.2837.957.2567 1.7585-.0807 2.4036-.343.6545-.9294 1.1046-1.7597 1.3513-.8148.2418-1.5161.1805-2.1034-.1821-.5523-.3242-.9433-.8757-1.1737-1.6533l-.3893-1.3123z"/><path d="m16.5107 101.892-1.1112-2.5532 4.892-2.1296-.6995-1.431 2.328-1.0132 2.3815 5.472-2.3282 1.013-.5705-1.4874z"/><path d="m24.2922 100.366 1.5264 2.563-1.403 1.898c-.1358.198-.2942.375-.4755.528l.042.07c.2413-.098.4807-.168.7194-.21l2.2364-.406 1.4963 2.514-8.5427.906-1.5083-2.533 2.6073-.218z"/><path d="m28.5567 115.347-2.0416 1.491c-.75-.364-1.3986-.897-1.9463-1.598-.8018-1.026-1.1439-2.041-1.0264-3.043.1256-1.068.683-1.989 1.6728-2.762.9648-.754 1.952-1.075 2.9601-.962 1.0638.12 1.9868.68 2.7695 1.683.5474.699.9145 1.487 1.1021 2.36l-1.9872 1.656c.055-.36.058-.699.0082-1.015-.0607-.459-.2326-.868-.5159-1.231-.2596-.332-.5394-.563-.8399-.695-.3161-.139-.6482-.152-.9955-.038l1.5632 2-1.3462 1.052-1.563-2.001c-.2375.304-.3283.638-.2728 1 .0389.316.1904.643.4548.981.2732.351.5877.619.9428.807.3244.162.6779.268 1.0613.315z"/><path d="m29.2989 120.349-2.0119-1.874 6.2431-4.849 2.1319 1.985-1.5094 2.959c-.1336.27-.2955.529-.4853.779l.0514.048c.1969-.2.4387-.386.7252-.556l2.8448-1.715 2.1147 1.969-4.3853 6.58-1.995-1.858 2.1271-2.799c.222-.283.386-.482.4922-.597l-.0339-.031c-.2048.15-.3904.275-.5582.375l-3.3112 1.856-1.2159-1.132 1.566-3.21c.1497-.298.3066-.541.471-.729l-.0598-.055c-.2074.223-.3486.368-.4234.437z"/><path d="m42.8133 124.296c-.359-.235-.7156-.309-1.0696-.224-.4191.098-.7566.344-1.0127.735-.2605.398-.3481.803-.262 1.213.0764.367.2877.664.6339.89.346.227.7023.301 1.0696.225.4102-.086.7457-.328 1.0059-.726.2736-.418.363-.825.2688-1.222-.0768-.367-.2879-.665-.6339-.891zm2.7701 3.672c-.6275.96-1.4478 1.551-2.4605 1.774-1.1423.25-2.2748.008-3.3974-.727-1.1227-.734-1.7979-1.675-2.0264-2.821-.2015-1.018.012-2.006.6395-2.966.6239-.953 1.4418-1.54 2.4544-1.764 1.1424-.25 2.2749-.007 3.3976.727 1.1226.735 1.798 1.676 2.0265 2.822.201 1.017-.0099 2.003-.6337 2.955z"/><path d="m51.59 131.73-1.3192 2.598c-.5913-.046-1.2283-.23-1.9118-.554-1.0507-.497-1.7564-1.249-2.1169-2.257-.3671-.993-.2992-2.021.2045-3.086.5033-1.064 1.2779-1.791 2.323-2.176 1.0486-.376 2.1054-.311 3.1705.192.5782.274 1.0951.631 1.5518 1.071l-1.1964 2.721c-.2457-.686-.6324-1.153-1.1613-1.404-.4161-.197-.8267-.213-1.231-.051-.3736.151-.6556.427-.8455.83-.1933.409-.2156.812-.0677 1.21.155.402.4408.7.8571.897.5501.261 1.1313.263 1.7429.009z"/><path d="m55.2161 134.264.5119.167c.2518.083.4506.102.596.059.1894-.052.3231-.197.4005-.435.0702-.215.0518-.397-.0551-.547-.0847-.118-.2457-.216-.483-.293l-.567-.185zm-3.1717.934 2.4208-7.419 2.5919.846-.8974 2.748 1.2906.42c.8227.269 1.3842.711 1.6845 1.326.2746.54.3019 1.149.0813 1.823-.2368.727-.6434 1.218-1.2188 1.473-.6322.278-1.4527.252-2.4604-.078z"/><path d="m63.3186 136.28-2.6314 3.376-2.0342-.446 2.0487-3.504z"/><path d="m77.1878 139.419-9.5792-.246.2-7.801 2.6905.068-.1387 5.416 1.4031.035.1387-5.415 2.6899.069-.1382 5.415 1.4032.037.1392-5.415 2.6894.068-.1382 5.416 1.1113.028-.1014 3.941-2.4091-.061z"/><path d="m84.582 133.111c-.4228.069-.737.254-.9408.556-.2423.356-.3264.764-.2507 1.226.0763.469.2847.827.6239 1.072.3052.219.6606.295 1.0689.229.4078-.066.7219-.251.9414-.556.2451-.339.3292-.745.2529-1.214-.0802-.493-.2897-.854-.6267-1.084-.3047-.219-.6606-.296-1.0689-.229zm4.5225.841c.1844 1.132-.0223 2.122-.6194 2.969-.6746.955-1.6739 1.541-2.9974 1.757-1.3246.215-2.4576-.024-3.4001-.716-.835-.615-1.3446-1.488-1.529-2.62-.1827-1.124.0245-2.11.6222-2.958.6745-.955 1.6733-1.541 2.9973-1.756 1.3247-.215 2.4582.023 3.3996.716.835.615 1.3441 1.484 1.5268 2.608z"/><path d="m93.4025 134.734.5136-.162c.2306-.072.3921-.168.4851-.288.1109-.142.136-.309.0752-.503-.0629-.2-.181-.326-.3526-.378-.1281-.042-.3141-.024-.5598.054l-.5136.161zm-1.9362 2.573-2.3473-7.443 5.7022-1.797.669 2.12-3.2034 1.01.2573.814 1.0043-.316c.967-.305 1.7552-.308 2.3646-.01.5336.265.8996.714 1.099 1.346.2278.722.1577 1.37-.2089 1.944-.3598.547-1.0193.971-1.9791 1.274z"/><path d="m103.028 129.42.599 1.139.508-.267c.227-.12.384-.25.468-.391.104-.188.101-.384-.007-.592-.091-.172-.226-.277-.405-.316-.168-.034-.376.013-.625.144zm-1.286-2.443.523.994.394-.207c.213-.113.345-.248.394-.406.043-.137.024-.281-.056-.434-.08-.152-.195-.245-.346-.281-.136-.025-.308.018-.516.127zm.444 6.47-3.635-6.906 3.013-1.586c.966-.508 1.755-.676 2.365-.504.527.146.941.505 1.243 1.078.206.394.275.758.205 1.095-.05.273-.175.52-.377.74l.022.068c.299-.069.613-.058.943.033.505.139.88.44 1.124.903.344.655.361 1.29.049 1.904-.264.518-.794.987-1.588 1.404z"/><path d="m111.847 127.805-2.215 1.588-4.549-6.34 5.836-4.188 4.549 6.34-2.215 1.589-3.116-4.344-1.407 1.01z"/><path d="m112.404 117.562 4.884-4.761 5.446 5.589-1.952 1.902-3.731-3.829-1.174 1.143 1.641 1.685c.752.77 1.131 1.518 1.138 2.24.003.673-.328 1.334-.993 1.981-.297.288-.6.541-.912.758l-1.535-1.575c.106-.06.229-.157.368-.293.252-.245.381-.481.39-.706.009-.304-.187-.662-.59-1.076z"/><path d="m117.98 112.003 1.624-2.146 2.211 1.673c.33.25.684.576 1.063.98l.063-.083c-.306-.487-.514-.859-.622-1.117l-1.396-3.198 1.532-2.024 6.224 4.708-1.623 2.146-2.119-1.603c-.355-.268-.709-.595-1.063-.98l-.063.085c.275.412.482.784.622 1.116l1.303 3.127-1.532 2.024z"/><path d="m128.346 105.108 1.125.625.278-.501c.125-.225.184-.42.177-.585-.015-.213-.125-.377-.329-.49-.17-.095-.341-.109-.511-.043-.16.062-.308.216-.445.462zm-2.414-1.341.982.546.216-.389c.118-.211.153-.397.107-.556-.039-.137-.133-.248-.284-.332-.149-.083-.298-.098-.442-.045-.129.054-.249.183-.364.387zm3.913 5.172-6.823-3.789 1.654-2.977c.531-.954 1.098-1.527 1.704-1.717.52-.166 1.064-.092 1.629.222.389.217.646.484.772.804.108.256.138.531.09.826l.055.044c.213-.221.482-.383.807-.488.499-.161.977-.114 1.434.14.648.36 1.009.882 1.084 1.566.063.579-.124 1.26-.56 2.045z"/><path d="m131.184 96.4088c-.27-.0374-.561-.0953-.874-.1744l-.037.0981c.259.1086.516.2534.772.4361l1.257.9002.409-1.0584zm3.429.4099-.776 2.0076.83.5464-1.08 2.7943-6.305-5.3349 1.131-2.9249 8.283.2172-1.084 2.8041z"/><path d="m137.783 89.6303-.692 2.6977-5.168-1.3257-.327 1.5591-2.46-.6311 1.483-5.7797 2.459.6311-.463 1.524z"/><path d="m130.754 85.6793.332-2.6704 2.751.3426c.41.0507.881.1565 1.411.3169l.013-.1047c-.508-.2674-.875-.4857-1.098-.655l-2.807-2.0711.313-2.5194 7.745.9636-.333 2.6699-2.636-.3276c-.44-.0545-.911-.1604-1.41-.3169l-.013.1047c.444.2206.81.4384 1.098.6551l2.691 2.056-.313 2.5194z"/><path d="m138.298 74.077c.336.0045.623.1292.861.3738.293.3002.436.6963.43 1.1876-.006.484-.16.8717-.46 1.1641-.245.239-.535.3565-.87.3515-.328-.0039-.611-.1286-.849-.3732-.293-.3008-.436-.6924-.43-1.1759.006-.4913.16-.8834.46-1.1759.244-.2384.531-.3559.858-.352zm-6.636.1148 4.82.0612-.034 2.7261-4.82-.0618z"/><path d="m30.4549 40.1636-1.7872 2.0894-5.1081-6.0332 1.8939-2.2147 3.0201 1.3842c.2751.122.5416.2735.7988.4512l.0457-.053c-.2083-.1877-.4032-.4216-.5858-.7007l-1.8336-2.7706 1.8789-2.1953 6.7587 4.1047-1.7722 2.0711-2.8861-2.0075c-.2933-.2095-.4988-.3649-.6176-.4663l-.0306.0357c.1597.1977.2924.3782.3994.5408l1.9936 3.2302-1.0801 1.2628-3.2727-1.4299c-.3036-.1364-.553-.2829-.7477-.44l-.0535.0629c.2313.1978.3827.3326.455.4039z"/><path d="m40.2839 30.322-4.0374 3.4881-5.1009-5.9056 3.984-3.4418 1.3996 1.6198-1.8417 1.5909.4743.5492 1.6734-1.4455 1.3385 1.5497-1.6732 1.4454.4893.566 1.8948-1.636z"/><path d="m40.2501 23.4355.7479 1.1185.3986-.2657c.2333-.156.3695-.3314.4082-.5258.0431-.161.0059-.3287-.1112-.5036-.117-.1749-.2637-.2685-.4415-.2813-.1816-.0195-.3731.0385-.5742.1727zm3.1468 4.7085-2.2956 1.5341-4.3365-6.4877 3.1124-2.0805c.8301-.5553 1.6032-.7664 2.3195-.6355.727.1331 1.331.5592 1.8125 1.2794.472.7075.6223 1.3948.4498 2.0627-.146.6233-.5564 1.1609-1.2309 1.6115l-1.1383.7603z"/><path d="m52.1519 23.206-4.7618 2.4064-3.5186-6.9657 4.699-2.3746.9656 1.9118-2.1719 1.0973.3272.6473 1.9738-.9971.9228 1.8276-1.9736.9971.338.6678 2.2346-1.129z"/><path d="m56.9143 21.4079-.7509-2.4013c-.0785-.2524-.1331-.4936-.1632-.7208l-.0563.0178c-.0161.2089-.0534.4829-.1114.8188l-.4484 2.7634-3.0257.9459 1.2254-4.5509-3.4306-2.9361 2.9031-.9069 1.9156 2.0482c.3186.3671.5286.6072.6306.7225l.0551-.0178c-.1231-.263-.2395-.5699-.3487-.9202l-.723-2.3117 2.5462-.7954.723 2.3122c.1069.342.1855.6606.2373.9547l.0557-.0173c.0122-.1425.0267-.2801.0429-.4116.0161-.132.0273-.2273.0334-.2863.0061-.0591.0117-.112.0173-.1588.0061-.0467.0105-.0779.0133-.0958l.3849-2.7684 2.9033-.9079-1.1252 4.3609 3.5984 3.0425-3.0264.9458-1.9412-2.0164c-.2401-.2434-.4261-.4462-.5587-.6099l-.0557.0178c.1047.2038.1966.4333.2752.6862l.7508 2.4014z"/><path d="m68.1102 14.5236c-.0936-.2557-.1777-.5403-.2534-.8539l-.1047.0122c.0245.2808.0161.576-.0262.8868l-.2095 1.5319 1.1275-.1315zm1.2361 3.2246-2.1384.2501-.0964.9893-2.9745.3465 1.7785-8.0641 3.1149-.3637 3.6708 7.4279-2.9867.3487z"/><path d="m78.8991 12.6376-.0791 1.1207.4434.0312c.2411.0162.425-.0295.5497-.137.1081-.0947.1683-.2273.18-.3983.0122-.171-.0368-.3119-.1465-.4206-.1025-.093-.2708-.1487-.5041-.1648zm-.1933 2.7545-.0914 1.2839.5721.0401c.2573.0178.4584-.0106.6044-.0869.1871-.1041.2891-.2729.3058-.5063.0133-.1939-.0452-.3548-.1777-.4818-.1248-.1176-.327-.1866-.6066-.2067zm-2.837 2.9789.547-7.7844 3.3962.239c1.0896.0763 1.8482.3487 2.2766.8166.371.4016.5331.9252.4879 1.5702-.0311.444-.1648.7904-.4016 1.0394-.1866.2061-.4228.3498-.7102.4306l-.0167.0691c.2902.0991.5515.2735.7843.5253.3559.3843.5158.8377.479 1.358-.0512.7397-.372 1.2878-.9603 1.6454-.4979.3014-1.1948.4206-2.0888.3577z"/><path d="m86.2614 19.5525-2.7879-.4891 1.3469-7.6864 2.789.4891z"/><path d="m90.6406 12.4866 6.5351 1.9552-2.2365 7.4758-2.6113-.7815 1.5318-5.1219-1.5692-.4695-.674 2.2526c-.3086 1.0316-.777 1.7262-1.4042 2.0838-.5871.3292-1.3252.3604-2.2142.0942-.3966-.1181-.7648-.2607-1.1057-.4273l.6305-2.1083c.1031.064.2485.1231.4345.1793.3365.1003.6055.1003.8072-.0028.2701-.1392.4868-.4857.6522-1.0383z"/><path d="m99.3332 21.8608.4879.2272c.2399.112.4349.156.5839.1315.195-.0301.345-.1571.451-.3838.095-.2055.1-.3882.011-.5503-.069-.1265-.217-.2435-.443-.3493l-.541-.2523zm-3.2614.542 3.3026-7.0704 2.4696 1.1536-1.224 2.618 1.231.5743c.784.3666 1.287.8735 1.511 1.5196.207.5704.16 1.177-.14 1.8204-.324.6929-.787 1.1302-1.389 1.314-.661.1994-1.473.0746-2.433-.3749z"/><path d="m105.084 27.0873-2.284-1.4867 4.257-6.5406 2.284 1.4873-1.442 2.2164 1.451.9447 1.443-2.2164 2.285 1.4873-4.258 6.54-2.285-1.4872 1.481-2.2744-1.451-.9447z"/><path d="m114.98 24.4209 2.01 1.7891-1.843 2.0716c-.275.3092-.629.6361-1.061.9815l.078.0707c.509-.2679.897-.445 1.163-.5325l3.298-1.1369 1.896 1.6873-5.187 5.8304-2.01-1.7887 1.765-1.9841c.296-.332.649-.6595 1.062-.9815l-.079-.0707c-.434.2412-.821.4183-1.163.5325l-3.22 1.0489-1.897-1.6878z"/><path d="m120.667 34.966 1.238-4.2218 2.048 2.466-.534 1.2801c-.051.1225-.148.2801-.293.4712l.038.0446c.18-.0886.354-.1521.524-.1917l1.327-.3253 2.048 2.4654-4.37.4512-1.418 4.7955-2.062-2.4838.753-1.8583c.023-.0584.096-.1654.222-.3202l-.053-.063c-.168.0786-.314.1287-.438.1515l-1.905.3799-2.062-2.4843z"/><path d="m51.8304 27.0562 6.2939-2.6292 3.0085 7.2007-2.5155 1.05-2.061-4.9325-1.5113.6311.9063 2.1697c.415.9926.493 1.8276.234 2.5016-.2451.6266-.7966 1.119-1.6527 1.4772-.3816.1588-.757.2819-1.1263.3693l-.8478-2.0298c.1197-.0162.2696-.0624.4495-.1376.3236-.1353.5308-.3063.6222-.513.1203-.2791.0696-.6846-.1532-1.2171z"/><path d="m68.7929 24.5039c-.4161.0668-.7258.2507-.9308.552-.2367.3465-.3175.7542-.2423 1.2238.0763.4774.2791.8361.6099 1.0756.3042.2195.6562.298 1.0567.2334.4161-.0663.7258-.2501.9308-.5509.239-.3314.3208-.7353.2445-1.2126-.0774-.4858-.2818-.8478-.6127-1.0879-.3036-.2195-.6556-.2975-1.0561-.2334zm-4.8038 1.0767.9241-.1481c.0702-.8406.386-1.5581.9464-2.1535.635-.6701 1.4694-1.0879 2.501-1.2533 1.3636-.2178 2.5078.0211 3.433.7185.8171.6122 1.3162 1.484 1.4962 2.6158.1871 1.1637-.0123 2.1669-.5966 3.0102-.6272.9147-1.6388 1.4828-3.0325 1.7062-1.094.1749-2.0086.0607-2.7444-.3431-.752-.4011-1.2946-1.0294-1.6288-1.8839l-.9129.1459.4294 2.6804-2.6915.4306-1.2333-7.7059 2.6921-.43z"/><path d="m78.4352 24.1758-.0825 1.0489c-.0211.2802-.0429.494-.0612.6411-.0201.1471-.0591.3236-.1181.5303-.0591.2066-.1387.3921-.2373.5564-.1254.2023-.283.3733-.4741.5148l2.158.1682.2612-3.3478zm-2.2164-2.4264 6.4743.5052-.4378 5.5875.9341.0724-.2936 3.7449-2.379-.186.1209-1.5519-4.1984-.3275-.1214 1.5513-2.3796-.1866.2924-3.7432c.4312-.0134.7944-.1532 1.089-.42.3626-.332.5821-.9954.6607-1.9908z"/><path d="m88.89 31.6851-5.1742-1.2996 1.9023-7.5689 5.1062 1.284-.5219 2.0755-2.3596-.5933-.1771.7041 2.1445.5392-.4991 1.9858-2.1445-.5392-.1822.7264 2.4276.6099z"/><path d="m98.2827 24.1903 1.1653 1.1876c-.3849.3342-.8294.5135-1.3346.5392-.4356.0222-.9253-.0858-1.4678-.3242-.557-.244-.9715-.5326-1.2433-.864-.3125-.376-.4785-.8227-.4974-1.3424l1.6633.0523c-.0318.2078-.0067.3933.0752.5565.0958.1693.2723.3108.5297.4233.2573.1131.474.1438.6489.0936.1761-.0507.3292-.1582.4607-.3219zm-5.3191.5938 2.4649 1.08-1.1135 2.5395c-.1666.3788-.4016.7988-.7063 1.2622l.0963.0413c.4017-.4111.7153-.6991.9414-.864l2.7857-2.1005 2.3256 1.0193-3.1338 7.1467-2.4649-1.0801 1.0667-2.432c.1788-.4077.4139-.8283.7063-1.2622l-.0958-.0418c-.3381.3626-.6517.6506-.9419.8651l-2.7383 1.9925-2.3251-1.0194z"/><path d="m140.745 56.8153c-.736-1.7346-2.103-3.0781-3.849-3.7833-1.748-.7063-3.665-.6891-5.398.0473l-2.071.879c.203-1.265.072-2.598-.464-3.8619-.736-1.7334-2.103-3.0775-3.85-3.7827-1.747-.7063-3.664-.6885-5.397.0473l-36.0576 15.3054c-.8434.3582-1.2361 1.3313-.8785 2.1741.3576.8434 1.3302 1.2377 2.1747.879l36.0574-15.306c.918-.3893 1.933-.3988 2.859-.025.925.3737 1.65 1.0856 2.039 2.0041.805 1.8962-.083 4.0936-1.979 4.8985l-1.961.8328-4.306 1.8276-13.512 5.7351c-.843.3582-1.236 1.3313-.878 2.1747.268.6311.882 1.0104 1.527 1.0104.216 0 .435-.0423.647-.132l17.818-7.5633 9.528-4.0446c.92-.3893 1.935-.3988 2.859-.025.926.3737 1.649 1.0856 2.039 2.0041.805 1.8962-.083 4.0936-1.979 4.8985l-25.078 10.6448v.0006l-3.57 1.5151c-.843.3576-1.236 1.3313-.878 2.1741.04.0952.091.1827.146.2657.016.0245.034.0473.051.0707.044.059.091.1147.141.1666.02.02.038.0412.059.0601.071.0663.145.1276.226.1799.001 0 .001.0006.002.0006.079.0518.165.0941.252.1314.026.0112.052.0201.079.0301.066.024.134.044.203.0596.028.0067.054.0139.083.019.093.0161.189.0273.285.0273.216 0 .436-.0424.647-.1326l3.57-1.5151c.919-.3894 1.934-.3983 2.859-.0251.925.3738 1.649 1.0856 2.039 2.0042.804 1.8961-.083 4.0936-1.979 4.8985l-5.795 2.4598c-.515.2184-.859.6668-.969 1.1742-.003.0123-.009.0234-.011.0357-.01.0501-.01.1019-.015.1526-.006.0557-.016.1103-.016.1665 0 .2156.043.4345.132.6456.041.0953.092.1827.147.2663.016.024.033.0457.05.0685.044.0596.091.1153.142.1677.019.0206.038.0412.059.0607.07.0657.144.127.225.1788.001.0011.003.0017.005.0028.079.0507.162.0924.249.1292.026.0117.053.0206.08.0307.066.0239.134.044.202.0595.028.0067.055.0134.082.0184.095.0167.19.0279.286.0279h.002c.037 0 .074-.0089.111-.0112.18-.0128.36-.0473.535-.1214l.003-.0011c.918-.3888 1.932-.3966 2.856-.024.925.3744 1.649 1.0857 2.039 2.0037.804 1.8966-.083 4.0941-1.979 4.899-3.826 1.6238-7.829 2.8787-11.894 3.7304l-22.2713 4.6628c-2.2036.462-4.4468-.708-5.3274-2.784l-9.518-22.4236c-.2824-.6645-.2467-1.4065.0975-2.0348 1.3826-2.5244 4.5064-7.8803 9.8934-15.389 7.2736-10.1379 8.8361-13.6471 8.9163-13.8332l1.4527-3.595c.3738-.9252 1.0851-1.6494 2.0036-2.0393.9191-.3899 1.934-.3988 2.8593-.0251 1.9095.7715 2.8358 2.9534 2.0643 4.8629l-2.7305 6.7584c-.3437.8494.0668 1.8159.9157 2.159.8495.3431 1.8159-.0679 2.1585-.9169l2.7311-6.7578c1.4566-3.6051-.2913-7.7237-3.897-9.1803-1.7462-.7064-3.663-.6896-5.397.0467-1.734.7359-3.0776 2.1034-3.7828 3.8497l-1.4326 3.5476c-.0151.0329-1.5742 3.4597-8.556 13.1899-5.4895 7.6507-8.689 13.1386-10.1078 15.7293-.8349 1.5246-.923 3.3193-.2412 4.9241l9.518 22.4234c1.2783 3.013 4.2428 4.904 7.4173 4.904.5431 0 1.0935-.055 1.6416-.171l22.2713-4.662c4.278-.896 8.487-2.216 12.511-3.9236 3.579-1.5191 5.255-5.6673 3.736-9.2467-.525-1.2361-1.375-2.2688-2.45-3.0185l.294-.1243c3.579-1.5195 5.254-5.6683 3.735-9.2472-.524-1.2366-1.374-2.2687-2.449-3.0185l19.577-8.3103c3.579-1.519 5.255-5.6677 3.736-9.2466z"/><path d="m58.1922 55.1075c.2606.6456.8817 1.0377 1.5374 1.0377.2066 0 .4172-.039.6205-.1209.8494-.3431 1.2594-1.3095.9163-2.159l-2.73-6.7584c-.3738-.9252-.3649-1.9407.0245-2.8592.3905-.918 1.1141-1.6299 2.0398-2.0036 1.9112-.7715 4.0908.1548 4.8629 2.0643l3.3377 8.2601c.3426.8489 1.3079 1.2595 2.1585.9163.8489-.3431 1.2588-1.3095.9157-2.1584l-3.3371-8.2607c-1.4567-3.6051-5.5748-5.3536-9.1798-3.8964-1.7469.7057-3.1144 2.0487-3.8502 3.7827-.7358 1.7341-.7525 3.6508-.0468 5.3976z"/><path d="m66.0997 104.383-17.3858-4.4019c-4.051-1.0262-8.0551-2.3736-11.9014-4.0068-.9182-.3899-1.6302-1.1135-2.0036-2.0393-.374-.9246-.3651-1.9401.0248-2.8592.3902-.918 1.1141-1.6293 2.039-2.0036.9237-.3727 1.9379-.3638 2.8557.0239l.0032.0011c.0744.0318.1502.0502.2257.0702.032.0084.0635.0229.0955.0295.0664.0134.133.0151.1995.0201.0416.0033.0834.0128.1247.0128h.0024c.0971 0 .193-.0111.2876-.0284.0255-.0044.0501-.0106.0754-.0162.0724-.0167.1433-.0378.2127-.0635.024-.0089.0477-.0167.071-.0267.178-.0752.3422-.1816.4856-.3153.0181-.0172.0348-.0356.0523-.0534.0531-.0546.1025-.1126.1481-.1749.0159-.0218.032-.0424.0468-.0647.0555-.0835.1066-.1715.1474-.2673.0894-.2111.132-.4301.1323-.6456 0-.0563-.0105-.1109-.0162-.1666-.005-.0507-.0047-.1025-.0145-.1526-.0024-.0123-.0081-.0234-.0107-.0356-.1108-.5075-.4548-.9559-.9691-1.1743l-5.7949-2.4598c-1.8962-.8049-2.7842-3.0029-1.9798-4.8985.8049-1.8955 3.0003-2.784 4.8979-1.9791l3.57 1.5151c.2119.0897.431.1326.6477.1326.0973 0 .1933-.0117.2879-.0284.0259-.0045.0509-.0112.0766-.0167.071-.0162.1401-.0368.2082-.0619.0259-.0094.0514-.0183.0768-.0289.0869-.0374.1717-.0791.2514-.1309.0011-.0006.0021-.0011.0032-.0017.0803-.0518.1545-.1131.2253-.1794.0208-.0189.0397-.0401.0596-.0601.0502-.0518.097-.1075.1405-.166.0174-.024.0353-.0468.0514-.0713.055-.083.1055-.1705.1459-.2657.3578-.8428-.0352-1.8165-.8781-2.1741l-3.5695-1.5151c-.0003-.0006-.0005-.0006-.0007-.0006l-25.078-10.6447c-1.896-.8049-2.7842-3.0024-1.9798-4.8985.8051-1.8956 3.0014-2.784 4.8985-1.9791l7.9577 3.3778 19.388 8.23c.212.0897.4311.132.6476.132.6449 0 1.2589-.3793 1.5268-1.0104.3579-.8433-.0352-1.8165-.8782-2.1746l-13.5105-5.7352c-.0004 0-.0007 0-.0009 0l-5.8766-2.4943-.3908-.166c-.9187-.39-1.6306-1.1146-2.0042-2.0399-.3738-.9252-.3649-1.9401.025-2.8586.3901-.9186 1.114-1.6304 2.039-2.0042.9254-.3732 1.9403-.3643 2.8589.0251l33.116 14.0571c.8428.3576 1.8171-.0351 2.1747-.8785.3576-.8433-.0351-1.8164-.8785-2.1746l-33.1157-14.0565c-1.7342-.7359-3.6512-.7537-5.3978-.0474-1.7463.7052-3.1134 2.0493-3.8493 3.7828-.5251 1.2366-.6772 2.5651-.4694 3.8591l-2.0656-.8762c-3.5804-1.5196-7.7278.1559-9.24748 3.7359-1.51896 3.5789.15691 7.7271 3.73628 9.2467l19.5827 8.3125c-1.0507.7325-1.9187 1.7524-2.4553 3.0163-1.519 3.5789.1569 7.7276 3.7362 9.2472l.2992.127c-1.0509.7325-1.9191 1.7524-2.4555 3.0157-1.5189 3.5789.1569 7.7276 3.7367 9.2472 4.0028 1.6991 8.1689 3.1011 12.3823 4.1681l17.3864 4.402c.1365.035.2735.052.4077.052.7414 0 1.4165-.501 1.6065-1.252.225-.888-.3125-1.79-1.2004-2.015z"/></g></g></svg>